<?xml version="1.0" encoding="UTF-8"?>
<svg id="Camada_1" xmlns="http://www.w3.org/2000/svg" version="1.1" viewBox="0 0 618.33 304.32">
  <!-- Generator: Adobe Illustrator 29.7.1, SVG Export Plug-In . SVG Version: 2.1.1 Build 8)  -->
  <defs>
    <style>
      .st0 {
        fill: #fff;
      }

      .st1 {
        fill: #161a31;
        fill-rule: evenodd;
      }
    </style>
  </defs>
  <g>
    <path class="st1" d="M36.26,298.71c-17.54,0-28.43-13.35-28.43-34.84s11.55-36.77,29.44-36.77c3.8,0,7.33.76,10.55,2.28v-23.25c0-5.28,4.8-5.28,11.45-5.28h.54c5.77,0,11.22,0,11.22,5.28v71.91c4.94.06,4.94,4.62,4.94,8.29v1.31c0,3.89,0,7.24-3.13,8.67-.09.04-.18.08-.27.11-2.79,1-6.41,1.59-9.67,1.59-4.45,0-8.28-1.53-10.91-4.22-4.35,3.19-9.79,4.92-15.72,4.92ZM40.74,247.99c-2.53,0-9.24,0-9.24,15.88,0,5.41,1.08,9.49,3.13,11.8,1.64,1.94,4.57,2.22,6.18,2.22,2.74,0,5.38-.97,6.31-1.89.43-.51.69-1.39.69-4.03v-20.75c-2.09-2.17-4.42-3.23-7.07-3.23Z"/>
    <path class="st0" d="M59.8,204.36c6.95,0,7.72.46,7.72,1.78v72.09c0,2.62,1,3.32,3.4,3.32,1.39,0,1.54.54,1.54,4.79v1.31c0,4.17-.23,5.09-1.08,5.48-2.16.77-5.33,1.39-8.49,1.39-5.17,0-8.72-2.39-10.27-5.94-4.01,4.25-9.88,6.64-16.36,6.64-15.51,0-24.93-12.04-24.93-31.34,0-20.92,10.5-33.27,25.94-33.27,5.56,0,10.19,1.85,14.05,5.25v-29.72c0-1.31.23-1.78,7.95-1.78h.54M40.81,281.39c3.32,0,7.1-1.16,8.88-3.01,1.31-1.47,1.62-3.32,1.62-6.41v-22.08c-2.93-3.55-6.48-5.4-10.57-5.4-8.65,0-12.74,6.87-12.74,19.37,0,6.95,1.62,11.42,4.01,14.13,2.08,2.47,5.48,3.4,8.8,3.4M59.8,197.36h-.54c-4.76,0-6.96.16-8.72.64-3.9,1.07-6.23,4.11-6.23,8.13v18.3c-2.25-.56-4.6-.83-7.05-.83-9.74,0-18.34,4.06-24.23,11.42-5.7,7.13-8.71,17.11-8.71,28.85,0,23.29,12.53,38.34,31.93,38.34,5.66,0,10.95-1.41,15.44-4.05,3.04,2.16,6.89,3.35,11.19,3.35,3.69,0,7.65-.66,10.85-1.8.18-.07.36-.14.54-.22,5.18-2.36,5.18-7.62,5.18-11.85v-1.31c0-2.59-.04-4.41-.58-6.11-.61-1.91-2.03-3.9-4.36-4.95v-69.14c0-3.97-2.48-7.1-6.47-8.15-1.73-.46-3.97-.63-8.25-.63h0ZM40.81,274.39c-1.84,0-3.08-.47-3.45-.91-.04-.04-.07-.09-.11-.13-.84-.95-2.25-3.45-2.25-9.48,0-12.37,4.02-12.37,5.74-12.37.89,0,2.13.16,3.57,1.28v19.2c0,.85-.03,1.39-.06,1.73-.74.32-2.06.69-3.43.69h0Z"/>
  </g>
  <g>
    <path class="st1" d="M109.36,298.71c-19.93,0-31.83-12.94-31.83-34.61,0-23.51,12.33-37,33.83-37,19.93,0,31.83,12.94,31.83,34.61,0,23.51-12.33,37-33.83,37ZM110.98,247.99c-2.67,0-9.78,0-9.78,15.33,0,14.49,6.21,14.49,8.54,14.49,2.67,0,9.78,0,9.78-15.41,0-14.41-6.21-14.41-8.54-14.41Z"/>
    <path class="st0" d="M111.36,230.6c17.6,0,28.33,10.73,28.33,31.11,0,21.38-10.65,33.5-30.33,33.5-17.6,0-28.33-10.73-28.33-31.11,0-21.38,10.65-33.5,30.33-33.5M109.74,281.31c9.26,0,13.28-7.1,13.28-18.91s-3.78-17.91-12.04-17.91c-9.26,0-13.28,7.1-13.28,18.83s3.78,17.98,12.04,17.98M111.36,223.6c-23.38,0-37.33,15.14-37.33,40.5,0,11.85,3.18,21.26,9.45,27.97,6.19,6.63,15.14,10.13,25.88,10.13,23.38,0,37.33-15.14,37.33-40.5,0-11.85-3.18-21.26-9.45-27.97-6.19-6.63-15.14-10.13-25.88-10.13h0ZM109.74,274.31c-2.11,0-2.74-.7-3.24-1.48-.67-1.04-1.8-3.66-1.8-9.5,0-11.83,4.24-11.83,6.28-11.83s2.74.7,3.25,1.48c.67,1.03,1.8,3.63,1.8,9.43,0,11.91-4.24,11.91-6.28,11.91h0Z"/>
  </g>
  <g>
    <path class="st1" d="M293,299.16c-9.43,0-15.12,0-15.12-6.16v-85.58c0-6.57,5.83-6.57,13.88-6.57h1c7.82,0,12.57,0,13.89,4.71.31.95.47,2.44.6,5.22,4.49-6.43,11.01-11.67,20.87-11.67,2.49,0,4.35.3,5.86.95,3.7,1.48,3.7,4.73,3.7,11.85v2.41c0,7.72,0,12.38-5.6,12.87-7.99.68-13.43,3.84-17.63,10.22-4.02,6.11-5.81,15.58-5.81,30.7v24.9c0,6.16-6.53,6.16-14.79,6.16h-.83Z"/>
    <path class="st0" d="M328.12,202.61c1.74,0,3.32.17,4.48.66,1.25.5,1.58.91,1.58,8.63v2.41c0,8.88-.5,9.21-2.41,9.38-9.71.83-15.77,4.98-20.25,11.79-4.32,6.56-6.39,16.44-6.39,32.62v24.9c0,1.91-1.08,2.66-11.29,2.66h-.83c-11.21,0-11.62-.75-11.62-2.66v-47.73c0-13.45,0-28.58,0-37.85,0-2.41.5-3.07,10.38-3.07h1c8.47,0,10.04.33,10.54,2.24.58,1.49.57,10.87.91,17.76,5.56-14.19,12.87-21.75,23.91-21.75M328.12,195.61c-8.08,0-14.17,3.17-18.72,7.38-.97-1.97-2.93-4.24-6.92-5.08-2.21-.47-5.12-.56-9.71-.56h-1c-6.15,0-8.96.25-11.16,1.01-2.32.8-6.21,3.03-6.21,9.06v15.53c0,7.12,0,14.97,0,22.32v47.73c0,6.21,4.69,8.21,6.7,8.78,2.26.64,5.49.88,11.92.88h.83c5.9,0,9.07-.24,11.33-.86,4.36-1.2,6.96-4.49,6.96-8.79v-24.9c0-14.2,1.66-23.34,5.24-28.77,3.66-5.55,8-8.06,15-8.66,5.47-.48,7.38-4.21,8.03-6.39.59-1.98.78-4.4.78-9.96v-2.41c0-7.36,0-12.69-5.9-15.1-1.94-.82-4.22-1.2-7.16-1.2h0Z"/>
  </g>
  <g>
    <path class="st1" d="M474.96,300.82c-13.32,0-26.2-4.19-34.47-11.21-3.96-3.46-1.22-8.44.78-12.07l1.75-3.16c2.36-4.18,4.59-7.61,8.17-7.61,1.15,0,2.25.38,3.29,1.12,6.38,4.24,13.91,6.76,20.16,6.76s11.03-1.95,11.03-4.63-6.31-4.42-12.4-6.18c-12.71-3.66-31.92-9.2-31.92-32,0-19.26,16.18-32.72,39.36-32.72,12.05,0,22.62,3.22,30.56,9.33,4.6,3.34,1.8,8.06-1.15,13.06l-1.53,2.47c-2.44,4.17-4.46,7.18-7.86,7.18-1.06,0-2.09-.32-3.16-.97-5.66-3.55-10.39-5.05-15.86-5.05-4.07,0-7.42.77-8.94,2.07-1.03.93-1.26,1.64-1.26,2.4,0,2.48,6.7,4.49,12.61,6.27,12.63,3.81,31.72,9.55,31.72,31.08,0,8.72-3.59,17.25-9.84,23.41-7.14,6.95-17.57,10.47-31.01,10.47Z"/>
    <path class="st0" d="M480.68,202.61c11.37,0,21.25,3.07,28.47,8.63,1.74,1.25,1.41,2.57-2.08,8.47l-1.49,2.41c-2.36,4.04-3.61,5.52-4.89,5.52-.43,0-.86-.17-1.34-.46-5.56-3.49-10.96-5.56-17.68-5.56-4.98,0-8.96,1-11.21,2.91-1.58,1.41-2.49,2.99-2.49,5.06,0,12.95,44.33,6.23,44.33,37.35,0,7.97-3.32,15.52-8.8,20.92-6.39,6.23-15.94,9.46-28.55,9.46-13.36,0-25.07-4.32-32.21-10.38-1.33-1.16-1.16-2.74,1.58-7.72l1.74-3.15c2.23-3.96,3.68-5.8,5.1-5.8.43,0,.85.17,1.29.49,6.72,4.48,14.86,7.39,22.16,7.39,9.13,0,14.53-3.4,14.53-8.13,0-13.45-44.33-5.15-44.33-38.18,0-18.18,15.61-29.22,35.86-29.22M480.68,195.61c-25.23,0-42.86,14.89-42.86,36.22,0,11.2,4.29,20,12.75,26.15,6.73,4.9,15.03,7.29,21.7,9.21,2.79.8,6.67,1.92,8.82,2.94-1.18.49-3.25,1.01-6.48,1.01-5.58,0-12.37-2.3-18.18-6.15-2.02-1.43-3.97-1.73-5.27-1.73-5.91,0-9.09,5.63-11.2,9.36-.01.02-.02.04-.03.06l-1.74,3.15c-2.14,3.88-6.1,11.09-.06,16.37.03.02.05.05.08.07,8.88,7.54,22.61,12.04,36.74,12.04s25.64-3.85,33.44-11.45c6.95-6.84,10.91-16.28,10.91-25.93,0-10.68-4.28-19.15-12.72-25.2-6.65-4.76-14.53-7.13-21.49-9.23-2.87-.87-6.88-2.07-9.09-3.15,1.03-.36,2.85-.75,5.67-.75,4.83,0,8.87,1.3,13.96,4.49.03.02.05.03.08.05,1.61.98,3.29,1.48,4.98,1.48,5.64,0,8.55-4.92,10.88-8.91l1.45-2.33s.05-.08.08-.13c2.04-3.45,3.24-5.72,3.77-7.87.95-3.87-.34-7.42-3.53-9.77-8.56-6.56-19.85-10.03-32.66-10.03h0Z"/>
  </g>
  <g>
    <path class="st1" d="M542.03,202.93c-9.94,0-18.03-7.94-18.03-17.69s8.09-17.69,18.03-17.69,18.03,7.94,18.03,17.69-8.09,17.69-18.03,17.69Z"/>
    <path class="st0" d="M542.03,171.04c8.3,0,14.53,6.56,14.53,14.19s-6.23,14.19-14.53,14.19-14.53-6.56-14.53-14.19,6.23-14.19,14.53-14.19M542.03,164.04c-11.87,0-21.53,9.51-21.53,21.19s9.66,21.19,21.53,21.19,21.53-9.51,21.53-21.19-9.66-21.19-21.53-21.19h0Z"/>
  </g>
  <g>
    <path class="st1" d="M542.19,299.16c-9.38,0-15.04,0-15.04-6.16v-83.31c0-6.07,5.66-6.07,15.04-6.07h.91c8.54,0,14.71,0,14.71,6.07v83.31c0,6.16-6.49,6.16-14.71,6.16h-.91Z"/>
    <path class="st0" d="M543.11,207.12c10.21,0,11.21.66,11.21,2.57v83.31c0,1.91-1,2.66-11.21,2.66h-.91c-11.21,0-11.54-.75-11.54-2.66v-83.31c0-1.91.33-2.57,11.54-2.57h.91M543.11,200.12h-.91c-6.51,0-9.6.21-11.81.82-2.02.55-6.72,2.51-6.72,8.76v83.31c0,6.2,4.64,8.2,6.64,8.77,2.27.65,5.39.88,11.9.88h.91c5.97,0,9.04-.24,11.31-.87,4.32-1.2,6.89-4.49,6.89-8.79v-83.31c0-4.33-2.61-7.61-6.98-8.77-2.21-.59-5.25-.8-11.23-.8h0Z"/>
  </g>
  <g>
    <path class="st1" d="M598.13,299.98c-6.98,0-12.85-2.12-16.97-6.14-4.59-4.59-6.54-10.77-6.54-20.68v-99.58c0-5.74,4-5.74,14.7-5.74h.91c9.05,0,15.03,0,15.03,5.74v43.22s0,54.95,0,54.95c0,2.39.17,2.39,2.23,2.39h2.08c5.24,0,5.24,4.92,5.24,11.14v1.49c0,6.26,0,9.12-3.59,10.8-3.06,1.48-8.09,2.41-13.11,2.41Z"/>
    <path class="st0" d="M590.24,171.33c9.88,0,11.53.47,11.53,2.24,0,5.17,0,19.81,0,43.22v54.95c0,3.98,1.41,5.89,5.73,5.89h2.08c1.58,0,1.74,1.25,1.74,7.64v1.49c0,6.23-.17,6.97-1.58,7.64-2.57,1.25-7.14,2.08-11.62,2.08-6.23,0-11.21-1.91-14.53-5.15-4.15-4.15-5.48-10.04-5.48-18.18v-60.01c0-16.44,0-33.14,0-39.57,0-1.92,0-2.24,11.21-2.24h.91M590.24,164.33h-.91c-6.86,0-9.41.13-11.37.58-2.06.47-6.84,2.26-6.84,8.66v11.39s0,28.18,0,28.18v60.01c0,7.26.86,16.46,7.53,23.13.02.02.04.04.06.06,4.79,4.67,11.5,7.13,19.41,7.13,5.58,0,11.05-1.03,14.64-2.76,5.56-2.64,5.56-7.63,5.56-13.95v-1.49c0-3.91-.06-5.95-.44-7.69-.92-4.29-4.1-6.95-8.31-6.95h-.8v-53.84c0-15.92,0-27.79,0-35.38v-7.84c0-3.42-2.01-7.48-7.66-8.64-2.12-.44-5.07-.6-10.88-.6h0Z"/>
  </g>
  <g>
    <path class="st1" d="M377.63,300.87c-24.61,0-39.89-18.72-39.89-48.84s14.89-48.22,40.86-52.24c4.12-.65,8.38-.98,12.67-.98,16.63,0,30.01,4.91,33.17,7.41.84.66,1.33,1.67,1.33,2.74,0,.42,0,48.67,0,62.85h3.3c1.84,0,3.37,1.43,3.49,3.27l1.15,17.48c.1,1.57-.85,3.02-2.34,3.53l-3.08,1.07c-.96.35-1.87.64-2.67.86-.84.23-1.69.38-2.44.52l-.29.05c-.96.16-1.91.32-2.91.4-.1,0-.19.01-.29.01-.08,0-.15,0-.23,0-1.44.1-3.3.15-5.79.15h-.86c-3.5,0-9.46-1.76-12.8-5.82-6.01,4.62-14.43,7.54-22.38,7.54ZM387.35,225.73c-.92,0-1.87.04-2.89.13-10.3.83-15.5,9.39-15.5,25.45,0,20.08,7.32,22.79,14.48,22.79,4.98,0,8.67-1.9,10.12-3.79,1.2-1.57,1.71-3.8,1.71-7.47v-36.1c-3.12-.73-5.48-1.02-7.92-1.02Z"/>
    <path class="st0" d="M391.27,202.31c16.27,0,28.78,4.9,31,6.65,0,.46,0,59.61,0,66.14.21.04.73.09,1,.13.5.07,1.07.07,1.79.07h4.01l1.15,17.48-3.08,1.07c-.79.29-1.65.57-2.44.79-.79.21-1.65.36-2.44.5-.86.14-1.72.29-2.58.36,0,0,0-.03,0-.04-1.43.13-3.36.18-6.02.18h-.86c-3.01,0-10.89-2.29-11.68-8.09-5.16,5.8-14.76,9.81-23.5,9.81-22.49,0-36.39-17.19-36.39-45.34,0-31.3,17.55-45.63,37.9-48.78,4.2-.66,8.27-.94,12.13-.93M383.44,277.6c5.52,0,10.53-2.08,12.89-5.16,1.86-2.44,2.44-5.52,2.44-9.6v-38.83c-4.54-1.22-7.88-1.79-11.42-1.79-1.04,0-2.09.05-3.2.15-12.46,1-18.7,11.25-18.7,28.94,0,15.26,4.08,26.29,17.98,26.29M391.27,195.31h0c-4.46,0-8.91.34-13.21,1.02-12.55,1.94-23.19,7.52-30.75,16.13-8.67,9.86-13.06,23.18-13.06,39.57,0,15.41,3.91,28.42,11.31,37.62,7.75,9.64,18.84,14.73,32.09,14.73,7.62,0,15.65-2.47,21.98-6.51,4.28,3.46,9.99,4.79,13.19,4.79h.86c2.49,0,4.34-.05,5.83-.15.06,0,.12,0,.19,0,.19,0,.39,0,.58-.02,1.15-.1,2.21-.27,3.15-.43.03,0,.07-.01.1-.02l.3-.05c.78-.14,1.74-.31,2.73-.58.89-.24,1.88-.56,2.94-.95l3.04-1.06c2.97-1.04,4.89-3.93,4.68-7.07l-1.15-17.48c-.24-3.61-3.19-6.44-6.79-6.54,0-17.28,0-58.96,0-59.35,0-2.14-.98-4.16-2.65-5.49-4.32-3.42-19-8.17-35.34-8.17h0ZM383.44,270.6c-4.11,0-10.98,0-10.98-19.29,0-20.98,9.23-21.72,12.26-21.96.02,0,.04,0,.05,0,.92-.08,1.76-.12,2.58-.12,1.42,0,2.82.12,4.42.38v33.24c0,3.63-.57,4.79-1,5.35-.76,1-3.55,2.41-7.33,2.41h0Z"/>
  </g>
  <g>
    <path class="st1" d="M185.59,299.16c-5.52,0-11.22,0-11.22-6.16v-119.28c0-6.07,5.45-6.07,11.22-6.07h22.66c20.96,0,33.46,3.78,41.81,12.64,5.8,5.98,8.76,13.62,8.76,22.65,0,10.49-4.32,19.09-12.87,25.65,12.68,6.34,19.09,16.48,19.09,30.22,0,10.32-3.31,19.32-9.57,26.04-9.38,9.9-23.01,14.31-44.23,14.31h-25.65ZM211.58,272.41c7.56,0,13.41-.7,17.39-4.13,2.36-2.1,3.68-5.59,3.68-9.8s-1-7.51-2.96-9.48c-3.23-3.23-8.01-4.37-18.28-4.37h-4.97v27.78h5.13ZM209.17,218.62c6.66,0,10.93-1.16,13.86-3.76,2.28-1.96,3.56-5.23,3.56-9,0-3.26-.91-5.93-2.63-7.74-2.6-2.5-7.16-3.62-14.78-3.62h-2.73v24.13h2.73Z"/>
    <path class="st0" d="M208.25,171.15c18.51,0,31.13,2.91,39.26,11.54,5.23,5.4,7.8,12.12,7.8,20.25,0,9.71-3.98,19.17-16.77,26.31,14.03,4.98,22.99,14.11,22.99,29.55,0,9.46-2.99,17.6-8.63,23.66-8.88,9.38-22,13.2-41.67,13.2h-25.65c-6.72,0-7.72-.42-7.72-2.66v-119.28c0-2.24,1-2.57,7.72-2.57h22.66M202.94,222.12h6.23c7.22,0,12.45-1.33,16.19-4.65,2.99-2.57,4.73-6.72,4.73-11.62,0-4.15-1.24-7.72-3.65-10.21-3.32-3.24-8.47-4.65-17.27-4.65h-6.23v31.13M202.94,275.91h8.63c8.3,0,14.86-.83,19.67-4.98,2.99-2.66,4.9-6.97,4.9-12.45,0-5.06-1.25-9.21-3.98-11.95-4.15-4.15-10.04-5.4-20.75-5.4h-8.47v34.78M208.25,164.15h-22.66c-4.19,0-6.54.12-8.59.81-1.84.61-6.12,2.7-6.12,8.77v119.28c0,6,4.2,8.13,6.01,8.77,2.12.75,4.6.89,8.71.89h25.65c22.26,0,36.68-4.74,46.75-15.39.01-.01.03-.03.04-.04,6.88-7.38,10.51-17.21,10.51-28.43,0-9.75-3.16-22.14-16.56-30.8,6.87-6.73,10.34-15.12,10.34-25.07s-3.28-18.4-9.74-25.09c-9.07-9.6-22.33-13.7-44.32-13.7h0ZM209.94,215.11v-17.12c7.85.09,10.36,1.48,11.53,2.58,1.04,1.13,1.62,3,1.62,5.27,0,2.76-.84,5.06-2.3,6.32-.03.02-.06.05-.08.07-1.34,1.19-3.91,2.76-10.76,2.87h0ZM209.94,248.13h1.47c10.37,0,13.74,1.28,15.8,3.35,1.25,1.25,1.93,3.73,1.93,7s-.91,5.74-2.51,7.19c-2.74,2.33-6.97,3.25-15.06,3.25h-1.63v-20.78h0Z"/>
  </g>
  <g>
    <path class="st1" d="M437.22,166.14c-15.37,0-28.24-5.84-37.22-16.88-8.81-10.83-13.46-26.27-13.46-44.64,0-36.63,18.77-60.54,51.49-65.61,5.04-.79,10.27-1.2,15.54-1.2,21.45,0,38.25,6.43,42.09,9.71,1.71,1.46,2.65,3.4,2.65,5.48,0,2.61-.06,6.85-.15,12.55v.67c-.13,8.49-.29,19.05-.29,29.19v12.67c0,5.74.08,11.94.23,18.1h4.32c1.84,0,3.37,1.43,3.49,3.27l1.73,26.44c.1,1.57-.85,3.01-2.34,3.53l-5.97,2.08c-.82.3-2.12.75-3.4,1.09-1.02.28-2.07.48-3.13.67l-.36.07c-1.18.2-2.46.41-3.76.52l-3.58.29c-.09,0-.19.01-.29.01-.33,0-.65-.04-.96-.13-.91.02-1.91.02-3.01.02h-1.04c-3.88,0-10.91-1.76-15.76-6.29-7.58,5.22-17.56,8.37-26.83,8.37ZM449.02,75.14c-1.06,0-2.14.05-3.33.16-4.13.33-16.6,1.34-16.6,28.45,0,25.21,9.86,25.21,15.15,25.21,4.96,0,8.97-1.84,10.36-3.66.73-.96,1.58-2.7,1.58-7.59v-41.79c-2.68-.54-4.92-.78-7.17-.78Z"/>
    <path class="st0" d="M453.56,41.31c20.42,0,36.67,6.18,39.82,8.87,1.18,1,1.42,2.09,1.42,2.82,0,2.67-.06,7.09-.15,12.5-.13,8.68-.29,19.48-.29,29.91v12.67c0,6.9.11,14.31.32,21.6h7.72l1.73,26.44-5.97,2.08c-1,.36-2.13.74-3.16,1.02-.91.25-1.9.43-2.84.6l-.37.07c-1.17.19-2.3.38-3.42.47l-3.58.29v-.15c-1.14.03-2.46.04-3.96.04h-1.04c-4.11,0-11.64-2.32-15.27-7.53-7.12,5.87-17.52,9.61-27.32,9.61-29.1,0-47.18-22.23-47.18-58.02s17.69-57.37,48.53-62.15c5.16-.81,10.19-1.15,15-1.15M444.24,132.46c5.55,0,10.83-2.02,13.14-5.03,1.61-2.11,2.3-5.02,2.3-9.72v-44.6c-4.21-1.03-7.39-1.47-10.67-1.47-1.18,0-2.38.06-3.63.17-13.14,1.06-19.79,11.8-19.79,31.94,0,25.45,9.97,28.71,18.65,28.71M453.56,34.31s0,0,0,0c-5.45,0-10.87.42-16.09,1.24-16.91,2.62-30.83,10.38-40.26,22.45-9.41,12.05-14.18,27.73-14.18,46.61s4.93,35.39,14.25,46.85c9.67,11.89,23.48,18.17,39.94,18.17,9.21,0,18.76-2.75,26.59-7.53,5.34,3.92,11.94,5.45,16,5.45h1.04c.96,0,1.83,0,2.63-.02.44.08.88.13,1.33.13.19,0,.38,0,.57-.02l3.58-.29c1.44-.12,2.8-.34,4-.54.03,0,.07-.01.1-.02l.37-.07c1.15-.21,2.28-.42,3.44-.74,1.08-.29,2.32-.69,3.66-1.18l5.93-2.07c2.97-1.04,4.88-3.93,4.68-7.07l-1.73-26.44c-.24-3.68-3.3-6.54-6.99-6.54h-.89c-.1-4.99-.15-9.94-.15-14.6v-12.67c0-10.16.16-20.73.28-29.23v-.58c.1-5.91.15-9.99.15-12.6,0-3.12-1.38-6.02-3.88-8.15-5.17-4.42-23.47-10.54-44.36-10.55h0ZM444.24,125.46c-3.66,0-5.79-.72-7.37-2.48-1.96-2.18-4.29-7.29-4.29-19.23,0-23.88,9.7-24.67,13.36-24.96.02,0,.04,0,.05,0,1.08-.1,2.07-.14,3.02-.14,1.2,0,2.39.07,3.67.24v38.83c0,3.59-.47,4.95-.87,5.47-.59.76-3.51,2.28-7.58,2.28h0Z"/>
  </g>
  <g>
    <path class="st1" d="M331.04,167.05c-21.74,0-38.48-4.6-51.17-14.07-.04-.03-.08-.06-.11-.09-4.34-3.53-5.11-9.77-1.76-14.22l13.71-17.19c1.85-2.49,4.83-3.97,7.99-3.97,2.02,0,3.98.59,5.66,1.71,7.12,4.56,16.38,7.31,24.72,7.31,6.38,0,8.32-.86,8.8-1.16,0-.05,0-.11,0-.16-1.41-1.47-9.5-3.07-13.44-3.84-16.51-3.26-44.14-8.71-44.14-41.42,0-28.01,17.93-44.08,49.19-44.08,17.49,0,31.19,2.63,41.88,8.04.06.03.11.06.17.09,2.47,1.43,4.22,3.68,4.92,6.35.68,2.6.33,5.28-1.01,7.56l-11.13,19.85c-1.91,3.25-5.21,5.16-8.86,5.16-1.36,0-2.69-.27-3.96-.8-6.25-2.48-13.16-3.7-21.07-3.7-2.75,0-4.19.23-4.9.42,1.97,1.33,9.28,2.73,12.92,3.43,16.62,3.2,44.44,8.55,44.44,41.51,0,16.16-6.87,43.27-52.88,43.27Z"/>
    <path class="st0" d="M330.49,39.36c16.93,0,30.11,2.51,40.3,7.67,1.69.98,2.83,2.48,3.29,4.21.44,1.69.21,3.43-.65,4.9l-11.16,19.9c-1.27,2.16-3.49,3.37-5.8,3.37-.87,0-1.76-.17-2.62-.53-6.71-2.67-14.05-3.97-22.41-3.97s-8.62,2.07-8.62,4.08c0,3.4,6.04,4.8,15.98,6.72,16.57,3.19,41.6,8,41.6,38.08,0,18.14-8.57,39.77-49.38,39.77-20.96,0-37.01-4.38-49.08-13.38-2.92-2.37-3.38-6.46-1.17-9.4l13.7-17.17c1.23-1.69,3.2-2.6,5.21-2.6,1.28,0,2.58.36,3.72,1.13,7.69,4.93,17.67,7.89,26.66,7.89,12.3,0,12.3-3.02,12.3-5.03,0-3.6-6.14-5.08-16.26-7.07-16.45-3.25-41.32-8.16-41.32-37.99,0-26.17,16.23-40.58,45.69-40.58M330.49,32.36c-16.43,0-29.4,4.12-38.54,12.24-9.26,8.22-14.15,20.44-14.15,35.34s5.91,27.16,17.58,34.77c-2.55.85-4.81,2.45-6.44,4.62l-13.62,17.08s-.08.1-.12.15c-4.5,5.96-3.47,14.33,2.34,19.05.07.06.15.12.23.18,13.32,9.94,30.75,14.77,53.27,14.77,20.35,0,35.52-5.14,45.08-15.28,7.49-7.94,11.29-18.54,11.29-31.49,0-15.63-5.99-27.4-17.8-35.01-2.28-1.47-4.66-2.71-7.08-3.77,2.36-1.17,4.37-3.02,5.78-5.42.02-.04.05-.08.07-.12l11.13-19.86c1.77-3.07,2.25-6.67,1.34-10.15-.95-3.59-3.28-6.6-6.56-8.5-.11-.06-.23-.13-.34-.18-11.19-5.67-25.41-8.42-43.46-8.42h0Z"/>
  </g>
  <g>
    <path class="st1" d="M235.53,161.98c-4.14,0-7.83-2.72-9.04-6.64l-.84-2.19c-.03-.07-.05-.15-.08-.23l-13.96-45.03-3.22-10.32-6.88-22.37-6.84,21.33-2.14,6.82h12.05c.12,0,.23,0,.35.02,3.33.33,6.07,2.66,6.97,5.94l6.96,25.22c.73,2.39.3,4.91-1.17,6.92-1.52,2.07-3.88,3.25-6.48,3.25h-31.62l-3.34,10.55c-1.12,3.92-4.86,6.71-9.06,6.71h-27.2c-3.09,0-5.9-1.45-7.72-3.97-1.78-2.47-2.27-5.64-1.33-8.47l.54-1.6,3.41-10.03c-8.64-5.86-14.63-14.91-16.59-25.22-.45-2.24.14-4.59,1.63-6.41,1.51-1.85,3.74-2.91,6.1-2.91h20.39l11.54-34.28,1.78-5.48,18.24-54.42c.97-3.34,4.09-5.67,7.64-5.67h34c3.55,0,6.67,2.33,7.64,5.67l47.04,140.36c.95,2.83.45,6-1.33,8.47-1.82,2.52-4.63,3.97-7.72,3.97h-29.71Z"/>
    <path class="st0" d="M219.6,7c1.97,0,3.76,1.25,4.29,3.2l47.06,140.44c1.25,3.74-1.61,7.83-5.73,7.83h-29.71c-2.68,0-5.01-1.78-5.73-4.27l-.89-2.31-13.96-45.03-3.22-10.32-8.05-26.17c-.36-.98-1.3-1.47-2.21-1.47s-1.81.49-2.08,1.47l-8.05,25.1-2.68,8.54c-.36,1.42.72,2.85,2.15,2.85h13.78c1.79.18,3.4,1.42,3.94,3.38l6.98,25.28c.89,2.85-1.25,5.7-4.29,5.7h-34.18l-4.12,12.99c-.72,2.49-3.04,4.27-5.73,4.27h-27.2c-4.12,0-6.98-4.09-5.73-7.83l.54-1.6,4.29-12.64c-8.95-5.16-15.39-14.06-17.36-24.39-.54-2.67,1.61-5.16,4.29-5.16h22.91l12.35-36.67,1.79-5.52,18.25-54.47c.54-1.96,2.33-3.2,4.29-3.2h34M219.6,0h-34C180.53,0,176.05,3.33,174.62,8.12l-18.21,54.33s-.01.04-.02.06l-1.78,5.48-10.73,31.86h-17.88c-3.42,0-6.63,1.53-8.81,4.19-2.15,2.62-3.01,6.02-2.35,9.31,1.98,10.33,7.66,19.49,15.88,25.85l-2.57,7.58-.55,1.63c-1.31,3.9-.63,8.24,1.8,11.63,2.45,3.4,6.39,5.43,10.56,5.43h27.2c5.72,0,10.81-3.79,12.42-9.23l2.55-8.04h29.05c3.1,0,6.05-1.24,8.2-3.39l2.83,9.15c.05.15.1.3.16.45l.8,2.08c1.7,5.31,6.72,8.98,12.35,8.98h29.71c4.17,0,8.11-2.03,10.56-5.43,2.44-3.38,3.11-7.73,1.8-11.63L230.58,8.12C229.15,3.33,224.67,0,219.6,0h0ZM197.28,99.86l.72-2.29,3.43-10.68,3.6,11.71.41,1.32c-.06,0-.12-.01-.19-.02-.23-.02-.46-.03-.69-.03h-7.28Z"/>
  </g>
</svg>